<svg viewBox="0 0 1024 1024" xmlns="http://www.w3.org/2000/svg"><path d="M780.438 243.875C713.984 176.342 621.6 134.497 519.443 134.497c-2.44 0-4.877.024-7.307.07l.364-.005c-1.466-.02-3.198-.033-4.932-.033-206.172 0-373.308 167.135-373.308 373.307 0 1.385.008 2.77.023 4.15l-.002-.21c-.013 1.203-.02 2.624-.02 4.047 0 206.116 167.09 373.206 373.205 373.206 1.77 0 3.537-.012 5.302-.037l-.267.003c1.215.014 2.65.022 4.088.022 206.104 0 373.184-167.08 373.184-373.184 0-1.426-.008-2.85-.024-4.27l.002.216c.042-2.057.065-4.482.065-6.912 0-102.157-41.844-194.54-109.33-260.947l-.048-.047zM512.5 840.065c-.967.01-2.108.015-3.25.015-179.52 0-325.047-145.528-325.047-325.046 0-1.144.006-2.286.018-3.426v.174c-.01-.945-.016-2.062-.016-3.18 0-179.575 145.574-325.15 325.15-325.15 1.106 0 2.21.007 3.315.018h-.17c.884-.01 1.93-.015 2.975-.015 179.14 0 324.362 145.222 324.362 324.362 0 1.394-.01 2.786-.026 4.176l.003-.21c.016 1.184.025 2.585.025 3.987 0 179.11-145.198 324.31-324.31 324.31-1.064 0-2.127-.006-3.19-.016h.163z"/></svg>