<svg viewBox="0 0 1024 1024" xmlns="http://www.w3.org/2000/svg"><path d="M791.75 232.563c-69.253-70.427-165.556-114.068-272.052-114.068-2.53 0-5.056.025-7.575.074l.377-.007c-2.292-.05-4.994-.078-7.702-.078-106.644 0-203.095 43.638-272.472 114.032l-.045.046C161.856 301.806 118.214 398.1 118.214 504.587c0 2.53.025 5.054.074 7.572l-.006-.378c-.04 2.12-.066 4.62-.066 7.128 0 106.522 43.626 202.854 113.986 272.105l.05.05h.03c69.435 70.402 165.876 114.015 272.504 114.015 2.713 0 5.42-.028 8.12-.084l-.405.007c1.214.014 2.65.02 4.086.02 214.94 0 389.184-174.243 389.184-389.183 0-1.425-.008-2.85-.023-4.27l.002.217c.042-2.127.066-4.635.066-7.148 0-106.503-43.64-202.813-114.014-272.023l-.053-.052zm-279.25 591.5c-2.11.054-4.597.085-7.09.085-84.03 0-159.987-34.576-214.416-90.278l-.056-.057c-56.037-54.365-90.814-130.372-90.814-214.5 0-2.65.034-5.29.103-7.92l-.008.39c-.062-2.254-.097-4.907-.097-7.567 0-84.098 34.78-160.074 90.738-214.328l.078-.074C345.432 234 421.425 199.39 505.503 199.39c2.46 0 4.914.03 7.36.088l-.363-.007c2.162-.055 4.707-.087 7.26-.087 83.808 0 159.534 34.602 213.672 90.3l.068.07c55.8 54.405 90.412 130.317 90.412 214.312 0 2.714-.036 5.42-.108 8.116l.008-.397c.063 2.3.1 5.004.1 7.718 0 83.997-34.61 159.908-90.35 214.253l-.062.06c-54.184 55.75-129.882 90.343-213.66 90.343-2.58 0-5.155-.033-7.72-.098l.38.008z"/></svg>